<svg width="226" height="79" viewBox="0 0 226 79" fill="none" xmlns="http://www.w3.org/2000/svg">
<rect width="226" height="79" rx="6" fill="url(#paint0_linear_101_18)" fill-opacity="0.94"/>
<path d="M71.2842 36.6258H29.3292V38.4499H71.2842V36.6258Z" fill="black"/>
<path d="M63.0757 42.0981H37.5378V43.9223H63.0757V42.0981Z" fill="black"/>
<path d="M81.8313 66.7239H16.9571C14.2236 66.7239 12 64.5003 12 61.7659V16.958C12 14.2236 14.2236 12 16.9571 12H81.8313C84.5657 12 86.7893 14.2236 86.7893 16.958V61.7668C86.7893 64.5003 84.5657 66.7239 81.8313 66.7239ZM16.9571 13.8241C15.2296 13.8241 13.8241 15.2296 13.8241 16.958V61.7668C13.8241 63.4943 15.2296 64.8998 16.9571 64.8998H81.8313C83.5597 64.8998 84.9652 63.4943 84.9652 61.7659V16.958C84.9652 15.2296 83.5597 13.8241 81.8313 13.8241H16.9571Z" fill="black"/>
<path d="M24.0365 25.9601C21.8613 25.9601 20.0909 24.1907 20.0909 22.0145C20.0909 19.8383 21.8613 18.068 24.0365 18.068C26.2127 18.068 27.983 19.8383 27.983 22.0145C27.983 24.1907 26.2127 25.9601 24.0365 25.9601ZM24.0365 19.8912C22.8664 19.8912 21.9151 20.8434 21.9151 22.0136C21.9151 23.1828 22.8664 24.135 24.0365 24.135C25.2067 24.135 26.1589 23.1828 26.1589 22.0136C26.158 20.8434 25.2058 19.8912 24.0365 19.8912Z" fill="black"/>
<path d="M34.1495 25.9601C31.9742 25.9601 30.2039 24.1907 30.2039 22.0145C30.2039 19.8383 31.9742 18.068 34.1495 18.068C36.3257 18.068 38.096 19.8383 38.096 22.0145C38.096 24.1907 36.3248 25.9601 34.1495 25.9601ZM34.1495 19.8912C32.9793 19.8912 32.028 20.8434 32.028 22.0136C32.028 23.1828 32.9793 24.135 34.1495 24.135C35.3197 24.135 36.2719 23.1828 36.2719 22.0136C36.271 20.8434 35.3188 19.8912 34.1495 19.8912Z" fill="black"/>
<path d="M44.2625 25.9601C42.0863 25.9601 40.316 24.1907 40.316 22.0145C40.316 19.8383 42.0863 18.068 44.2625 18.068C46.4378 18.068 48.2081 19.8383 48.2081 22.0145C48.2081 24.1907 46.4378 25.9601 44.2625 25.9601ZM44.2625 19.8912C43.0923 19.8912 42.1401 20.8434 42.1401 22.0136C42.1401 23.1828 43.0923 24.135 44.2625 24.135C45.4327 24.135 46.3839 23.1828 46.3839 22.0136C46.3839 20.8434 45.4327 19.8912 44.2625 19.8912Z" fill="black"/>
<mask id="mask0_101_18" style="mask-type:alpha" maskUnits="userSpaceOnUse" x="98" y="12" width="117" height="55">
<rect x="98" y="12" width="117" height="55" fill="#D9D9D9"/>
</mask>
<g mask="url(#mask0_101_18)">
<path d="M101.747 12.5983H98.7556V66.4466H101.747V12.5983Z" fill="black"/>
</g>
<path d="M110.943 41.1471L109.919 35.8311H116.062C116.508 35.8311 116.731 35.6342 116.731 35.2404V30.0426C116.731 29.6488 116.653 29.4126 116.495 29.3338C116.338 29.2551 116.062 29.2157 115.668 29.2157H112.715C112.295 29.2157 111.895 29.1829 111.514 29.1172C111.133 29.0516 110.792 28.9007 110.49 28.6644C110.188 28.4281 109.952 28.1 109.781 27.6799C109.611 27.2599 109.525 26.6955 109.525 25.9867V16.2998C109.525 15.171 109.834 14.2719 110.451 13.6025C111.068 12.933 112.045 12.5983 113.384 12.5983H121.26L122.244 17.9143H115.786C115.314 17.9143 115.078 18.1243 115.078 18.5443V23.7422C115.078 24.0309 115.15 24.2278 115.294 24.3329C115.438 24.4379 115.655 24.4904 115.944 24.4904H119.527C120.446 24.4904 121.148 24.7069 121.634 25.1401C122.12 25.5732 122.362 26.328 122.362 27.4043V36.8156C122.362 38.3907 122.041 39.5064 121.398 40.1627C120.754 40.8189 119.619 41.1471 117.991 41.1471H110.943ZM139.492 41.1471H133.664V29.7276H130.553V41.1471H124.725V12.5983H130.553V24.8054H133.664V12.5983H139.492V41.1471ZM148.115 17.5993C147.774 17.5993 147.603 17.7831 147.603 18.1506V35.5555C147.603 35.7655 147.636 35.9164 147.702 36.0083C147.767 36.1001 147.918 36.1461 148.155 36.1461H150.32C150.557 36.1461 150.708 36.1001 150.773 36.0083C150.839 35.9164 150.872 35.7655 150.872 35.5555V18.1506C150.872 17.7831 150.701 17.5993 150.36 17.5993H148.115ZM156.66 37.0912C156.66 37.6425 156.595 38.161 156.463 38.6466C156.332 39.1323 156.109 39.5588 155.794 39.9263C155.479 40.2939 155.059 40.5892 154.534 40.8123C154.009 41.0355 153.353 41.1471 152.565 41.1471H145.95C145.162 41.1471 144.506 41.0355 143.981 40.8123C143.456 40.5892 143.036 40.2939 142.721 39.9263C142.406 39.5588 142.182 39.1323 142.051 38.6466C141.92 38.161 141.854 37.6425 141.854 37.0912V16.2998C141.854 15.171 142.163 14.2719 142.78 13.6025C143.397 12.933 144.374 12.5983 145.713 12.5983H152.801C154.14 12.5983 155.118 12.933 155.735 13.6025C156.352 14.2719 156.66 15.171 156.66 16.2998V37.0912ZM164.693 17.5993V28.8219H167.528C167.765 28.8219 167.916 28.7759 167.981 28.6841C168.047 28.5922 168.08 28.4413 168.08 28.2313V18.1506C168.08 17.7831 167.909 17.5993 167.568 17.5993L164.693 17.5993ZM170.246 12.5983C171.374 12.5983 172.221 12.9133 172.785 13.5434C173.35 14.1734 173.632 15.0134 173.632 16.0635V29.7275C173.632 30.2788 173.573 30.7842 173.455 31.2436C173.337 31.703 173.12 32.1034 172.805 32.4446C172.49 32.7859 172.07 33.055 171.545 33.2519C171.02 33.4488 170.364 33.5472 169.576 33.5472H164.693V41.1471H159.023V12.5983H170.246ZM175.877 12.5983H181.586V41.1471H175.877V12.5983ZM183.949 12.5983H195.053L196.038 17.9143H189.816V24.6873H194.542V29.6095H189.816V41.1471H183.949V12.5983ZM208.757 41.1471H202.732V33.9016L197.259 12.5983H203.165L205.725 26.0655L208.324 12.5983H214.23L208.757 33.9016V41.1471Z" fill="black"/>
<path d="M117.635 47.3005L118.589 50.8782H116.018V66.5137H112.096V50.8782H109.525L110.532 47.3005H117.635ZM129.586 66.5137H125.664V58.8284H123.571V66.5137H119.649V47.3005H123.571V55.5158H125.664V47.3005H129.586V66.5137ZM131.177 47.3005H138.65L139.312 50.8782H135.125V55.4363H138.305V58.7489H135.125V62.9361H139.153L138.491 66.5137H131.177V47.3005ZM144.374 57.4504V66.5137H140.637V47.3005H144.692L146.786 55.4098L148.879 47.3005H152.96V66.5137H149.224V57.4504L146.786 65.1356L144.374 57.4504ZM154.55 47.3005H162.024L162.686 50.8782H158.499V55.4363H161.679V58.7489H158.499V62.9361H162.527L161.865 66.5137H154.55V47.3005ZM167.006 66.5137C165.893 66.5137 165.115 66.284 164.674 65.8247C164.232 65.3653 164.011 64.6056 164.011 63.5456V49.6591C164.011 48.8994 164.228 48.3164 164.66 47.9101C165.093 47.5037 165.628 47.3005 166.264 47.3005H171.325L171.988 50.8782H168.304C168.075 50.8782 167.96 51.0018 167.96 51.2492V62.5651C167.96 62.8124 168.075 62.9361 168.304 62.9361H171.988L171.299 66.5137H167.006ZM177.156 50.6662V57.2914H179.037C179.284 57.2914 179.408 57.1589 179.408 56.8939V51.0637C179.408 50.7987 179.284 50.6662 179.037 50.6662H177.156ZM183.198 58.6959C183.198 59.1199 183.052 59.5086 182.76 59.862C182.469 60.2153 182.041 60.392 181.475 60.392L183.489 66.5137H179.514L177.659 60.392H177.156V66.5137H173.313V47.3005H180.601C181.502 47.3005 182.16 47.5258 182.575 47.9763C182.99 48.4268 183.198 49.0319 183.198 49.7916V58.6959ZM188.339 64.1286L187.994 66.5137H184.125L187.597 47.3005H191.705L195.176 66.5137H191.307L190.963 64.1286H188.339ZM188.763 61.081H190.539L189.664 54.2703L188.763 61.081ZM196.236 47.3005H203.709L204.372 50.8782H200.185V55.4363H203.365V58.7489H200.185V66.5137H196.236V47.3005ZM213.276 47.3005L214.23 50.8782H211.66V66.5137H207.738V50.8782H205.167L206.174 47.3005H213.276Z" fill="black"/>
<defs>
<linearGradient id="paint0_linear_101_18" x1="1.68383e-06" y1="79" x2="226" y2="1.45358e-05" gradientUnits="userSpaceOnUse">
<stop stop-color="#FF7070"/>
<stop offset="0.67" stop-color="#FF4D4D"/>
<stop offset="1" stop-color="#FF2727"/>
</linearGradient>
</defs>
</svg>
